<?xml version="1.0" standalone="no"?>
<!DOCTYPE svg PUBLIC "-//W3C//DTD SVG 20010904//EN"
 "http://www.w3.org/TR/2001/REC-SVG-20010904/DTD/svg10.dtd">
<svg version="1.0" xmlns="http://www.w3.org/2000/svg"
 width="736.000000pt" height="736.000000pt" viewBox="0 0 736.000000 736.000000"
 preserveAspectRatio="xMidYMid meet">
<metadata>
Created by potrace 1.14, written by Peter Selinger 2001-2017
</metadata>
<g transform="translate(0.000000,736.000000) scale(0.100000,-0.100000)"
fill="#000000" stroke="none">
<path d="M1177 6064 c-1 -1 -27 -5 -57 -9 -133 -17 -294 -80 -422 -166 -82
-55 -214 -188 -264 -264 -21 -33 -42 -62 -45 -65 -23 -20 -125 -251 -121 -272
1 -5 -3 -8 -10 -8 -6 0 -9 -2 -6 -5 3 -3 -3 -34 -14 -68 -22 -69 -22 -70 -43
-182 -21 -111 -26 -168 -30 -332 l-3 -143 31 -1 c133 -3 768 -2 771 2 2 2 6
69 10 149 7 167 8 176 25 250 40 162 130 248 263 250 251 2 361 -321 238 -697
-40 -124 -175 -408 -210 -443 -3 -3 -14 -21 -24 -40 -11 -19 -36 -60 -55 -90
-20 -30 -42 -68 -50 -83 -8 -15 -18 -27 -23 -27 -4 0 -8 -5 -8 -11 0 -6 -20
-39 -45 -73 -25 -35 -45 -69 -45 -75 0 -6 -4 -11 -9 -11 -11 0 -73 -128 -95
-195 -21 -66 -43 -168 -51 -230 -3 -27 -8 -66 -11 -85 -2 -19 -6 -128 -8 -242
l-4 -208 102 0 c406 -2 659 -1 663 4 3 3 7 36 9 73 3 68 18 207 29 273 14 80
102 286 156 362 11 14 19 29 19 32 0 4 9 19 19 34 11 15 80 122 155 237 74
116 140 216 146 223 6 6 8 12 6 12 -3 0 5 16 19 35 13 20 33 55 45 78 11 23
25 49 30 57 38 64 103 231 129 330 19 70 25 98 36 160 3 14 8 79 11 145 3 66
6 125 6 130 2 41 -16 246 -26 295 -41 200 -97 335 -194 474 -36 51 -182 202
-182 189 0 -5 -4 -3 -8 3 -34 50 -280 168 -392 189 -14 2 -45 9 -70 14 -86 19
-146 24 -268 25 -68 1 -124 1 -125 0z"/>
<path d="M3618 6065 c-2 -2 -25 -6 -53 -9 -248 -28 -486 -166 -660 -383 -92
-114 -200 -329 -232 -460 -4 -17 -8 -31 -21 -78 -6 -22 -13 -53 -16 -70 -3
-16 -7 -41 -10 -55 -24 -124 -39 -440 -23 -457 12 -11 797 -9 798 2 1 6 2 55
4 110 5 174 21 288 50 355 2 3 6 15 10 28 4 12 11 22 16 22 5 0 9 6 9 13 0 23
87 95 123 103 4 1 8 2 10 4 3 2 39 10 57 12 8 0 37 -2 64 -6 154 -22 240 -170
241 -411 0 -85 -14 -186 -27 -202 -6 -7 -8 -13 -5 -13 12 0 -56 -178 -115
-299 -67 -140 -166 -307 -327 -550 -59 -90 -108 -169 -108 -175 -1 -6 -11 -38
-23 -71 -12 -33 -24 -69 -26 -80 -2 -11 -6 -31 -9 -45 -27 -124 -35 -183 -41
-315 -7 -167 -6 -327 4 -337 8 -8 751 -13 758 -5 1 1 5 47 8 102 9 135 12 160
40 293 11 50 61 179 76 192 3 3 19 32 35 65 17 33 33 64 38 70 15 21 52 81 66
108 8 15 18 27 23 27 4 0 8 5 8 10 0 12 92 153 103 158 4 2 7 8 7 14 0 5 11
24 25 42 14 18 25 38 25 44 0 7 4 12 9 12 5 0 14 14 21 30 7 17 16 30 21 30 5
0 9 6 9 14 0 8 3 16 8 18 22 10 173 317 208 423 14 44 28 91 30 104 3 14 7 28
9 32 3 4 7 24 11 44 3 21 8 47 10 59 19 94 26 374 11 486 -16 120 -50 260 -86
350 -43 107 -130 244 -199 315 -51 53 -122 115 -130 115 -5 0 -16 8 -26 18 -9
11 -51 36 -94 58 -42 21 -79 41 -82 44 -3 3 -9 6 -15 7 -5 1 -44 13 -85 26
-41 14 -93 28 -115 33 -22 4 -44 8 -50 9 -73 15 -357 30 -367 20z"/>
<path d="M5980 6053 c-86 -16 -77 -14 -153 -37 -103 -30 -227 -96 -312 -166
-66 -54 -175 -173 -223 -245 -29 -41 -52 -78 -52 -81 0 -3 -9 -18 -19 -32 -10
-15 -19 -30 -20 -34 -1 -5 -12 -32 -25 -60 -19 -44 -57 -148 -61 -168 -1 -3
-8 -30 -17 -60 -9 -30 -21 -82 -27 -115 -6 -33 -13 -71 -16 -84 -9 -49 -17
-161 -20 -288 -2 -129 -2 -133 19 -134 23 -1 740 -1 769 0 15 1 18 9 17 49 -3
123 18 330 41 389 6 16 9 28 8 28 -1 0 8 19 20 42 28 55 73 100 118 119 54 23
182 20 232 -6 43 -21 111 -97 111 -123 0 -9 4 -18 9 -21 4 -3 12 -20 16 -38 4
-18 10 -44 14 -58 8 -33 7 -257 0 -295 -9 -43 -40 -148 -47 -160 -4 -5 -7 -17
-9 -25 -1 -8 -6 -23 -12 -35 -5 -11 -22 -49 -38 -85 -31 -74 -158 -307 -179
-331 -8 -8 -14 -18 -14 -22 0 -3 -17 -32 -38 -64 -158 -239 -192 -293 -214
-333 -25 -45 -62 -152 -72 -203 -2 -14 -7 -30 -9 -34 -3 -5 -8 -28 -11 -53 -3
-25 -9 -56 -12 -70 -3 -14 -8 -139 -10 -277 l-3 -253 32 -1 c118 -1 720 1 722
3 3 3 13 92 20 183 10 114 30 217 57 283 6 15 17 43 25 62 16 39 17 41 63 125
42 75 108 181 225 360 199 305 308 505 340 625 1 3 7 17 13 33 11 27 41 142
47 182 2 11 6 34 10 50 12 49 16 425 6 485 -6 30 -13 71 -16 90 -3 19 -10 53
-15 75 -6 22 -13 49 -15 61 -14 62 -93 244 -107 244 -4 0 -8 7 -8 16 0 23
-103 155 -169 216 -123 115 -330 222 -469 244 -20 3 -40 8 -45 11 -4 2 -17 6
-30 8 -12 2 -44 7 -72 11 -86 13 -297 11 -375 -3z"/>
<path d="M833 2252 l-23 -3 0 -547 0 -547 428 0 427 0 0 544 c0 396 -3 545
-11 548 -14 5 -788 10 -821 5z"/>
<path d="M3249 2243 c-3 -21 -4 -1051 -1 -1068 3 -20 11 -20 421 -19 229 0
421 3 427 6 7 5 11 876 5 1071 -1 16 -28 17 -426 17 -234 0 -425 -3 -426 -7z"/>
<path d="M5679 2228 c-3 -163 1 -1061 5 -1065 9 -9 835 -10 849 -1 12 7 11
998 -2 1081 0 4 -192 7 -426 7 l-425 0 -1 -22z"/>
</g>
</svg>
