<?xml version="1.0" encoding="UTF-8" standalone="no"?>
<!DOCTYPE svg PUBLIC "-//W3C//DTD SVG 1.1//EN" "http://www.w3.org/Graphics/SVG/1.1/DTD/svg11.dtd">
<svg width="100%" height="100%" viewBox="0 0 46 33" version="1.1" xmlns="http://www.w3.org/2000/svg" xmlns:xlink="http://www.w3.org/1999/xlink" xml:space="preserve" xmlns:serif="http://www.serif.com/" style="fill-rule:evenodd;clip-rule:evenodd;stroke-linejoin:round;stroke-miterlimit:2;">
    <g transform="matrix(1,0,0,1,-104,0)">
        <g>
            <path d="M111.378,1.605C111.875,1.575 112.374,1.581 112.872,1.609C113.198,1.664 113.53,1.687 113.857,1.752C113.951,1.777 114.046,1.796 114.146,1.816C114.237,1.841 114.332,1.863 114.428,1.885C114.515,1.913 114.606,1.939 114.698,1.966C115.974,2.368 117.145,3.156 117.916,4.26C118.421,4.97 118.767,5.784 118.982,6.626C119.009,6.74 119.028,6.856 119.053,6.971C119.084,7.107 119.105,7.247 119.142,7.382C119.279,8.364 119.271,9.36 119.214,10.349C119.172,10.511 119.159,10.677 119.144,10.843C119.108,10.978 119.086,11.117 119.056,11.253C118.862,12.223 118.477,13.142 118.022,14.016C117.986,14.078 117.951,14.141 117.918,14.203C117.27,15.379 116.479,16.467 115.767,17.603C115.212,18.507 114.632,19.428 114.414,20.481C114.391,20.6 114.373,20.719 114.358,20.839C114.304,21.054 114.303,21.276 114.296,21.496L114.256,21.499C114.251,21.817 114.233,22.133 114.221,22.45C114.201,22.533 114.184,22.616 114.169,22.7C112.579,22.693 110.99,22.704 109.401,22.694C109.386,22.014 109.398,21.335 109.399,20.655L109.443,20.656C109.44,20.326 109.463,19.996 109.473,19.666L109.512,19.663C109.519,19.488 109.528,19.313 109.561,19.141C109.588,19.003 109.607,18.863 109.635,18.725C109.797,18.018 109.994,17.296 110.423,16.699C110.518,16.556 110.61,16.411 110.704,16.266C111.501,15.088 112.271,13.885 112.887,12.6C113.021,12.294 113.162,11.991 113.272,11.675C113.566,10.867 113.769,10.004 113.677,9.138C113.615,8.517 113.455,7.852 112.994,7.401C112.303,6.719 110.971,6.907 110.532,7.788C110.011,8.797 110.073,9.975 110.059,11.079C108.381,11.079 106.703,11.079 105.025,11.078C104.944,9.469 105.146,7.839 105.686,6.319C105.73,6.205 105.776,6.09 105.819,5.974C105.89,5.812 105.961,5.649 106.034,5.488C106.261,5.022 106.532,4.581 106.835,4.162C107.612,3.128 108.692,2.31 109.927,1.91C110.015,1.881 110.104,1.853 110.195,1.824C110.287,1.801 110.381,1.78 110.475,1.756C110.591,1.732 110.709,1.71 110.825,1.678C111.008,1.658 111.195,1.645 111.378,1.605Z" style="fill:rgb(254,254,254);fill-rule:nonzero;"/>
            <path d="M125.731,1.744C126.96,1.472 128.243,1.554 129.463,1.836C130.591,2.121 131.681,2.663 132.493,3.51C133.472,4.448 134.04,5.745 134.295,7.062C134.643,8.898 134.551,10.839 133.887,12.597C133.861,12.664 133.836,12.731 133.812,12.798C132.875,15.16 131.106,17.061 130.013,19.341C129.532,20.39 129.479,21.559 129.416,22.692C127.825,22.702 126.233,22.697 124.641,22.695C124.64,22.47 124.641,22.246 124.602,22.025C124.586,21.532 124.659,21.041 124.646,20.547C124.69,19.495 124.852,18.434 125.233,17.447C125.393,17.008 125.688,16.641 125.937,16.251C126.987,14.677 128.03,13.066 128.643,11.262C128.65,11.225 128.665,11.15 128.672,11.112C128.708,10.999 128.741,10.886 128.779,10.774C128.797,10.653 128.818,10.533 128.845,10.413C128.861,10.246 128.881,10.079 128.921,9.916C128.963,9.493 128.883,9.075 128.835,8.656C128.725,8.194 128.555,7.72 128.199,7.388C127.735,6.94 126.987,6.893 126.418,7.151C125.932,7.378 125.664,7.878 125.507,8.366C125.275,9.25 125.276,10.169 125.278,11.077C123.608,11.086 121.938,11.075 120.269,11.082C120.203,10.77 120.216,10.449 120.223,10.132C120.266,9.401 120.321,8.671 120.449,7.95C120.537,7.572 120.622,7.195 120.733,6.823C121.077,5.74 121.58,4.692 122.329,3.829C123.139,2.868 124.235,2.141 125.452,1.816C125.543,1.794 125.638,1.77 125.731,1.744Z" style="fill:rgb(233,27,36);fill-rule:nonzero;"/>
            <path d="M141.279,1.679C141.442,1.659 141.606,1.638 141.769,1.603C142.285,1.573 142.803,1.575 143.319,1.605C143.548,1.653 143.784,1.656 144.015,1.699C144.132,1.72 144.25,1.741 144.37,1.767C144.538,1.804 144.707,1.845 144.877,1.882C145.994,2.202 147.053,2.779 147.852,3.631C148.463,4.287 148.911,5.08 149.215,5.92C149.271,6.101 149.326,6.283 149.385,6.464C149.553,7.183 149.689,7.914 149.69,8.655C149.691,9.405 149.726,10.165 149.563,10.902C149.547,10.998 149.532,11.095 149.523,11.192C149.43,11.565 149.34,11.94 149.216,12.304C149.033,12.845 148.795,13.365 148.541,13.875C147.868,15.163 147.007,16.336 146.238,17.565C145.708,18.411 145.174,19.274 144.914,20.249C144.872,20.442 144.833,20.636 144.794,20.829C144.716,21.342 144.707,21.861 144.645,22.374C144.632,22.481 144.624,22.588 144.617,22.697C143.041,22.698 141.464,22.698 139.887,22.698C139.883,21.769 139.873,20.84 139.909,19.912C139.975,19.095 140.143,18.283 140.431,17.515C140.618,16.993 140.968,16.555 141.263,16.093C141.932,15.1 142.57,14.084 143.124,13.022C143.158,12.947 143.193,12.871 143.23,12.797C143.329,12.591 143.424,12.382 143.515,12.172C143.777,11.561 143.983,10.925 144.097,10.269C144.184,9.46 144.153,8.602 143.779,7.863C143.55,7.435 143.129,7.031 142.613,7.048C142.247,7.054 141.842,6.991 141.523,7.211C141.159,7.413 140.951,7.792 140.797,8.163C140.491,9.103 140.523,10.103 140.485,11.079C138.813,11.079 137.141,11.081 135.469,11.079C135.423,9.862 135.504,8.641 135.784,7.453C135.891,7.073 135.992,6.691 136.126,6.319C136.159,6.233 136.191,6.145 136.228,6.059C136.875,4.398 138.082,2.915 139.719,2.158C139.954,2.062 140.191,1.971 140.428,1.879C140.467,1.871 140.545,1.856 140.584,1.848C140.697,1.813 140.809,1.78 140.925,1.746C141.041,1.726 141.161,1.706 141.279,1.679Z" style="fill:rgb(2,171,235);fill-rule:nonzero;"/>
            <path d="M109.06,25.43C110.838,25.43 112.617,25.43 114.396,25.429C114.421,26.145 114.351,26.867 114.433,27.577C114.442,29.143 114.435,30.709 114.444,32.275C112.649,32.275 110.854,32.275 109.059,32.275C109.06,29.993 109.059,27.712 109.06,25.43Z" style="fill:rgb(254,254,254);fill-rule:nonzero;"/>
            <path d="M139.495,25.435C141.276,25.429 143.057,25.434 144.838,25.433C144.842,25.941 144.828,26.449 144.884,26.954C144.883,28.725 144.89,30.497 144.888,32.269C143.09,32.275 141.292,32.275 139.494,32.268C139.494,29.991 139.492,27.713 139.495,25.435Z" style="fill:rgb(2,171,235);fill-rule:nonzero;"/>
            <path d="M124.289,32.27C124.287,29.991 124.285,27.712 124.29,25.433C126.072,25.435 127.853,25.428 129.635,25.437C129.644,27.714 129.649,29.991 129.653,32.269C127.865,32.273 126.077,32.272 124.289,32.27Z" style="fill:rgb(233,27,36);fill-rule:nonzero;"/>
        </g>
    </g>
</svg>
